<mxfile host="Electron" modified="2025-02-16T08:57:59.741Z" agent="Mozilla/5.0 (Windows NT 10.0; Win64; x64) AppleWebKit/537.36 (KHTML, like Gecko) draw.io/24.5.3 Chrome/124.0.6367.207 Electron/30.0.6 Safari/537.36" etag="nNG5W97QXtyF8LsYOSXr" version="24.5.3" type="device">
  <diagram name="Page-1" id="zsV-nuJYvlZAPMjsYdbv">
    <mxGraphModel dx="794" dy="511" grid="1" gridSize="10" guides="1" tooltips="1" connect="1" arrows="1" fold="1" page="1" pageScale="1" pageWidth="850" pageHeight="1100" math="0" shadow="0">
      <root>
        <mxCell id="0" />
        <mxCell id="1" parent="0" />
        <mxCell id="Fjzcj8TdSuCdJVaOAmpX-1" value="Login" style="ellipse;whiteSpace=wrap;html=1;" vertex="1" parent="1">
          <mxGeometry x="340" y="20" width="100" height="50" as="geometry" />
        </mxCell>
        <mxCell id="Fjzcj8TdSuCdJVaOAmpX-37" value="View Courses" style="ellipse;whiteSpace=wrap;html=1;" vertex="1" parent="1">
          <mxGeometry x="340" y="80" width="100" height="50" as="geometry" />
        </mxCell>
        <mxCell id="Fjzcj8TdSuCdJVaOAmpX-38" value="Enroll in Courses" style="ellipse;whiteSpace=wrap;html=1;" vertex="1" parent="1">
          <mxGeometry x="340" y="140" width="100" height="50" as="geometry" />
        </mxCell>
        <mxCell id="Fjzcj8TdSuCdJVaOAmpX-39" value="Submit Assignments" style="ellipse;whiteSpace=wrap;html=1;" vertex="1" parent="1">
          <mxGeometry x="340" y="200" width="100" height="50" as="geometry" />
        </mxCell>
        <mxCell id="Fjzcj8TdSuCdJVaOAmpX-40" value="Take Exams &amp;amp; Quizzes" style="ellipse;whiteSpace=wrap;html=1;" vertex="1" parent="1">
          <mxGeometry x="340" y="260" width="100" height="50" as="geometry" />
        </mxCell>
        <mxCell id="Fjzcj8TdSuCdJVaOAmpX-46" value="Create Exams &amp;amp; Quizzes" style="ellipse;whiteSpace=wrap;html=1;" vertex="1" parent="1">
          <mxGeometry x="340" y="440" width="100" height="50" as="geometry" />
        </mxCell>
        <mxCell id="Fjzcj8TdSuCdJVaOAmpX-47" value="Provide Feedback" style="ellipse;whiteSpace=wrap;html=1;" vertex="1" parent="1">
          <mxGeometry x="340" y="500" width="100" height="50" as="geometry" />
        </mxCell>
        <mxCell id="Fjzcj8TdSuCdJVaOAmpX-48" value="Upload Course Materials" style="ellipse;whiteSpace=wrap;html=1;" vertex="1" parent="1">
          <mxGeometry x="340" y="380" width="100" height="50" as="geometry" />
        </mxCell>
        <mxCell id="Fjzcj8TdSuCdJVaOAmpX-49" value="Create Courses" style="ellipse;whiteSpace=wrap;html=1;" vertex="1" parent="1">
          <mxGeometry x="340" y="320" width="100" height="50" as="geometry" />
        </mxCell>
        <mxCell id="Fjzcj8TdSuCdJVaOAmpX-50" value="Manage Users" style="ellipse;whiteSpace=wrap;html=1;" vertex="1" parent="1">
          <mxGeometry x="340" y="560" width="100" height="50" as="geometry" />
        </mxCell>
        <mxCell id="Fjzcj8TdSuCdJVaOAmpX-52" value="Manage Courses" style="ellipse;whiteSpace=wrap;html=1;" vertex="1" parent="1">
          <mxGeometry x="340" y="620" width="100" height="50" as="geometry" />
        </mxCell>
        <mxCell id="Fjzcj8TdSuCdJVaOAmpX-53" value="Generate Report" style="ellipse;whiteSpace=wrap;html=1;" vertex="1" parent="1">
          <mxGeometry x="340" y="680" width="100" height="50" as="geometry" />
        </mxCell>
        <mxCell id="Fjzcj8TdSuCdJVaOAmpX-76" style="rounded=0;orthogonalLoop=1;jettySize=auto;html=1;endArrow=none;endFill=0;" edge="1" parent="1">
          <mxGeometry relative="1" as="geometry">
            <mxPoint x="340" y="40.33331298828125" as="targetPoint" />
            <mxPoint x="170" y="430" as="sourcePoint" />
          </mxGeometry>
        </mxCell>
        <mxCell id="Fjzcj8TdSuCdJVaOAmpX-54" value="Tutor" style="shape=umlActor;verticalLabelPosition=bottom;verticalAlign=top;html=1;outlineConnect=0;" vertex="1" parent="1">
          <mxGeometry x="140" y="410" width="30" height="60" as="geometry" />
        </mxCell>
        <mxCell id="Fjzcj8TdSuCdJVaOAmpX-77" style="rounded=0;orthogonalLoop=1;jettySize=auto;html=1;exitX=1;exitY=0.3333333333333333;exitDx=0;exitDy=0;exitPerimeter=0;endArrow=none;endFill=0;" edge="1" parent="1" source="Fjzcj8TdSuCdJVaOAmpX-55">
          <mxGeometry relative="1" as="geometry">
            <mxPoint x="340" y="40" as="targetPoint" />
          </mxGeometry>
        </mxCell>
        <mxCell id="Fjzcj8TdSuCdJVaOAmpX-55" value="Admin" style="shape=umlActor;verticalLabelPosition=bottom;verticalAlign=top;html=1;outlineConnect=0;" vertex="1" parent="1">
          <mxGeometry x="140" y="615" width="30" height="60" as="geometry" />
        </mxCell>
        <mxCell id="Fjzcj8TdSuCdJVaOAmpX-56" value="Student" style="shape=umlActor;verticalLabelPosition=bottom;verticalAlign=top;html=1;outlineConnect=0;" vertex="1" parent="1">
          <mxGeometry x="140" y="135" width="30" height="60" as="geometry" />
        </mxCell>
        <mxCell id="Fjzcj8TdSuCdJVaOAmpX-59" value="" style="shape=partialRectangle;whiteSpace=wrap;html=1;left=0;right=0;fillColor=none;" vertex="1" parent="1">
          <mxGeometry x="280" width="200" height="760" as="geometry" />
        </mxCell>
        <mxCell id="Fjzcj8TdSuCdJVaOAmpX-62" value="" style="shape=partialRectangle;whiteSpace=wrap;html=1;bottom=0;top=0;fillColor=none;" vertex="1" parent="1">
          <mxGeometry x="280" width="200" height="760" as="geometry" />
        </mxCell>
        <mxCell id="Fjzcj8TdSuCdJVaOAmpX-64" style="rounded=0;orthogonalLoop=1;jettySize=auto;html=1;exitX=1;exitY=0.3333333333333333;exitDx=0;exitDy=0;exitPerimeter=0;entryX=0.3;entryY=0.053;entryDx=0;entryDy=0;entryPerimeter=0;endArrow=none;endFill=0;" edge="1" parent="1" source="Fjzcj8TdSuCdJVaOAmpX-56" target="Fjzcj8TdSuCdJVaOAmpX-62">
          <mxGeometry relative="1" as="geometry" />
        </mxCell>
        <mxCell id="Fjzcj8TdSuCdJVaOAmpX-65" style="rounded=0;orthogonalLoop=1;jettySize=auto;html=1;exitX=1;exitY=0.3333333333333333;exitDx=0;exitDy=0;exitPerimeter=0;entryX=0.3;entryY=0.132;entryDx=0;entryDy=0;entryPerimeter=0;endArrow=none;endFill=0;" edge="1" parent="1" source="Fjzcj8TdSuCdJVaOAmpX-56" target="Fjzcj8TdSuCdJVaOAmpX-62">
          <mxGeometry relative="1" as="geometry" />
        </mxCell>
        <mxCell id="Fjzcj8TdSuCdJVaOAmpX-66" style="rounded=0;orthogonalLoop=1;jettySize=auto;html=1;exitX=1;exitY=0.3333333333333333;exitDx=0;exitDy=0;exitPerimeter=0;entryX=0.3;entryY=0.211;entryDx=0;entryDy=0;entryPerimeter=0;endArrow=none;endFill=0;" edge="1" parent="1" source="Fjzcj8TdSuCdJVaOAmpX-56" target="Fjzcj8TdSuCdJVaOAmpX-62">
          <mxGeometry relative="1" as="geometry" />
        </mxCell>
        <mxCell id="Fjzcj8TdSuCdJVaOAmpX-67" style="rounded=0;orthogonalLoop=1;jettySize=auto;html=1;exitX=1;exitY=0.3333333333333333;exitDx=0;exitDy=0;exitPerimeter=0;entryX=0.3;entryY=0.289;entryDx=0;entryDy=0;entryPerimeter=0;endArrow=none;endFill=0;" edge="1" parent="1" source="Fjzcj8TdSuCdJVaOAmpX-56" target="Fjzcj8TdSuCdJVaOAmpX-62">
          <mxGeometry relative="1" as="geometry" />
        </mxCell>
        <mxCell id="Fjzcj8TdSuCdJVaOAmpX-68" style="rounded=0;orthogonalLoop=1;jettySize=auto;html=1;exitX=1;exitY=0.3333333333333333;exitDx=0;exitDy=0;exitPerimeter=0;entryX=0.3;entryY=0.368;entryDx=0;entryDy=0;entryPerimeter=0;endArrow=none;endFill=0;" edge="1" parent="1" source="Fjzcj8TdSuCdJVaOAmpX-56" target="Fjzcj8TdSuCdJVaOAmpX-62">
          <mxGeometry relative="1" as="geometry" />
        </mxCell>
        <mxCell id="Fjzcj8TdSuCdJVaOAmpX-69" style="rounded=0;orthogonalLoop=1;jettySize=auto;html=1;exitX=1;exitY=0.3333333333333333;exitDx=0;exitDy=0;exitPerimeter=0;entryX=0.3;entryY=0.447;entryDx=0;entryDy=0;entryPerimeter=0;endArrow=none;endFill=0;" edge="1" parent="1" source="Fjzcj8TdSuCdJVaOAmpX-54" target="Fjzcj8TdSuCdJVaOAmpX-62">
          <mxGeometry relative="1" as="geometry" />
        </mxCell>
        <mxCell id="Fjzcj8TdSuCdJVaOAmpX-70" style="rounded=0;orthogonalLoop=1;jettySize=auto;html=1;exitX=1;exitY=0.3333333333333333;exitDx=0;exitDy=0;exitPerimeter=0;entryX=0.3;entryY=0.526;entryDx=0;entryDy=0;entryPerimeter=0;endArrow=none;endFill=0;" edge="1" parent="1" source="Fjzcj8TdSuCdJVaOAmpX-54" target="Fjzcj8TdSuCdJVaOAmpX-62">
          <mxGeometry relative="1" as="geometry" />
        </mxCell>
        <mxCell id="Fjzcj8TdSuCdJVaOAmpX-71" style="rounded=0;orthogonalLoop=1;jettySize=auto;html=1;exitX=1;exitY=0.3333333333333333;exitDx=0;exitDy=0;exitPerimeter=0;entryX=0.3;entryY=0.605;entryDx=0;entryDy=0;entryPerimeter=0;endArrow=none;endFill=0;" edge="1" parent="1" source="Fjzcj8TdSuCdJVaOAmpX-54" target="Fjzcj8TdSuCdJVaOAmpX-62">
          <mxGeometry relative="1" as="geometry" />
        </mxCell>
        <mxCell id="Fjzcj8TdSuCdJVaOAmpX-72" style="rounded=0;orthogonalLoop=1;jettySize=auto;html=1;exitX=1;exitY=0.3333333333333333;exitDx=0;exitDy=0;exitPerimeter=0;entryX=0.3;entryY=0.684;entryDx=0;entryDy=0;entryPerimeter=0;endArrow=none;endFill=0;" edge="1" parent="1" source="Fjzcj8TdSuCdJVaOAmpX-54" target="Fjzcj8TdSuCdJVaOAmpX-62">
          <mxGeometry relative="1" as="geometry" />
        </mxCell>
        <mxCell id="Fjzcj8TdSuCdJVaOAmpX-73" style="rounded=0;orthogonalLoop=1;jettySize=auto;html=1;exitX=1;exitY=0.3333333333333333;exitDx=0;exitDy=0;exitPerimeter=0;entryX=0.3;entryY=0.762;entryDx=0;entryDy=0;entryPerimeter=0;endArrow=none;endFill=0;" edge="1" parent="1" source="Fjzcj8TdSuCdJVaOAmpX-55" target="Fjzcj8TdSuCdJVaOAmpX-62">
          <mxGeometry relative="1" as="geometry" />
        </mxCell>
        <mxCell id="Fjzcj8TdSuCdJVaOAmpX-74" style="rounded=0;orthogonalLoop=1;jettySize=auto;html=1;exitX=1;exitY=0.3333333333333333;exitDx=0;exitDy=0;exitPerimeter=0;entryX=0.3;entryY=0.841;entryDx=0;entryDy=0;entryPerimeter=0;endArrow=none;endFill=0;" edge="1" parent="1" source="Fjzcj8TdSuCdJVaOAmpX-55" target="Fjzcj8TdSuCdJVaOAmpX-62">
          <mxGeometry relative="1" as="geometry" />
        </mxCell>
        <mxCell id="Fjzcj8TdSuCdJVaOAmpX-75" style="rounded=0;orthogonalLoop=1;jettySize=auto;html=1;exitX=1;exitY=0.3333333333333333;exitDx=0;exitDy=0;exitPerimeter=0;entryX=0.3;entryY=0.92;entryDx=0;entryDy=0;entryPerimeter=0;endArrow=none;endFill=0;" edge="1" parent="1" source="Fjzcj8TdSuCdJVaOAmpX-55" target="Fjzcj8TdSuCdJVaOAmpX-62">
          <mxGeometry relative="1" as="geometry" />
        </mxCell>
      </root>
    </mxGraphModel>
  </diagram>
</mxfile>
